<svg xmlns="http://www.w3.org/2000/svg" viewBox="0 0 400 220">
  <rect width="400" height="220" fill="#20242D"/>
  <g stroke="#151515" stroke-width="3">
    <rect width="38" height="16" x="48" y="24" rx="3" fill="#D67F48"/>
    <rect width="38" height="16" x="87" y="24" rx="3" fill="#D67F48"/>
    <rect width="38" height="16" x="126" y="24" rx="3" fill="#D67F48"/>
    <rect width="38" height="16" x="165" y="24" rx="3" fill="#D67F48"/>
    <rect width="38" height="16" x="204" y="24" rx="3" fill="#D67F48"/>
    <rect width="38" height="16" x="243" y="24" rx="3" fill="#D67F48"/>
    <rect width="38" height="16" x="282" y="24" rx="3" fill="#D67F48"/>
    <rect width="38" height="16" x="321" y="24" rx="3" fill="#D67F48"/>
    <rect width="38" height="16" x="48" y="44" rx="3" fill="#FDC846"/>
    <rect width="38" height="16" x="87" y="44" rx="3" fill="#FDC846"/>
    <rect width="38" height="16" x="126" y="44" rx="3" fill="#FDC846"/>
    <rect width="38" height="16" x="204" y="44" rx="3" fill="#FDC846"/>
    <rect width="38" height="16" x="243" y="44" rx="3" fill="#FDC846"/>
    <rect width="38" height="16" x="282" y="44" rx="3" fill="#FDC846"/>
    <rect width="38" height="16" x="321" y="44" rx="3" fill="#FDC846"/>
    <rect width="38" height="16" x="48" y="64" rx="3" fill="#8FA073"/>
    <rect width="38" height="16" x="87" y="64" rx="3" fill="#8FA073"/>
    <rect width="38" height="16" x="126" y="64" rx="3" fill="#8FA073"/>
    <rect width="38" height="16" x="165" y="64" rx="3" fill="#8FA073"/>
    <rect width="38" height="16" x="204" y="64" rx="3" fill="#8FA073"/>
    <rect width="38" height="16" x="243" y="64" rx="3" fill="#8FA073"/>
    <rect width="38" height="16" x="321" y="64" rx="3" fill="#8FA073"/>
    <rect width="38" height="16" x="48" y="84" rx="3" fill="#A8B4C3"/>
    <rect width="38" height="16" x="126" y="84" rx="3" fill="#A8B4C3"/>
    <rect width="38" height="16" x="165" y="84" rx="3" fill="#A8B4C3"/>
    <rect width="38" height="16" x="204" y="84" rx="3" fill="#A8B4C3"/>
    <rect width="38" height="16" x="243" y="84" rx="3" fill="#A8B4C3"/>
    <rect width="38" height="16" x="282" y="84" rx="3" fill="#A8B4C3"/>
  </g>
  <g fill="#A8B4C3" opacity="0.35"><circle cx="232" cy="150" r="5"/><circle cx="222" cy="160" r="4"/></g>
  <circle cx="242" cy="140" r="7" fill="#FDC846" stroke="#151515" stroke-width="3"/>
  <rect width="84" height="12" x="166" y="186" rx="6" fill="#4E5969" stroke="#151515" stroke-width="3"/>
</svg>
